:SAMPLES-PER-SECOND 30
:FULLY-SPECIFIED
:DEGREES
382
root  2.28753 24.9883 -16.8979 27.1303 -42.0368 -10.2212
RightUpLeg  -48.949 -16.8763 -16.7515
RightLeg  75.2234 -2.76928 -8.47472
RightFoot  -12.5246 0.324076 3.33034
RightToes  -42.3833 -0.237797 -0.328186
Spine  20.8712 -6.5858 -2.52056
Spine1  33.5804 -17.1024 3.01381
HEad  9.84231 -27.9458 47.0646
LeftShoulder1  0 -2.42657e-020 -4.95415e-022
LeftArm  -61.0195 -58.3817 -51.7619
LeftForeArm  8.20963 -32.3985 -6.41293
LeftHand  1.79406 -7.28657 -28.0257
RightShoulder  0 2.42657e-020 1.07489e-018
RightArm  -26.1404 23.5077 95.0596
RightForeArm  30.6298 38.4347 8.04622
RightHand  -0.802851 24.1126 -3.38852
LeftUpLeg  -76.5825 23.5406 12.1652
LeftLeg  81.7541 0.291543 1.34723
LeftFoot  -6.91638 -0.170999 -2.82912
LeftToes  -32.4272 8.63562e-007 1.17448e-007
383
root  2.40748 24.9801 -17.2969 27.8514 -47.4114 -10.9347
RightUpLeg  -49.1118 -19.6802 -17.6481
RightLeg  75.7054 -3.29817 -10.2983
RightFoot  -9.55266 0.224472 3.06376
RightToes  -40.9076 -0.225774 -0.320192
Spine  20.1397 -7.43392 -2.8789
Spine1  32.4538 -19.5343 3.14808
HEad  8.77081 -29.4738 48.1979
LeftShoulder1  0 -2.42657e-020 -4.95415e-022
LeftArm  -67.0111 -58.9835 -44.1548
LeftForeArm  9.23006 -28.7879 -5.54849
LeftHand  2.07362 -7.77251 -30.2309
RightShoulder  0 2.42657e-020 1.07489e-018
RightArm  -25.3272 20.0064 97.0014
RightForeArm  31.456 42.3586 9.26042
RightHand  -0.738428 24.1715 -3.07842
LeftUpLeg  -75.2111 27.3898 12.0303
LeftLeg  81.7191 0.615961 2.87209
LeftFoot  -6.15443 -0.174956 -3.25357
LeftToes  -32.8307 8.63562e-007 1.17448e-007
384
root  2.45801 24.9884 -17.7729 28.6969 -53.4175 -11.9625
RightUpLeg  -50.791 -24.0992 -17.6736
RightLeg  75.2991 -4.19485 -12.642
RightFoot  -7.94931 0.182056 2.99753
RightToes  -34.582 -0.176712 -0.282517
Spine  19.4514 -7.7298 -2.77631
Spine1  31.3736 -20.7426 3.68522
HEad  6.79985 -30.6502 49.543
LeftShoulder1  0 -2.42657e-020 -4.95415e-022
LeftArm  -66.7087 -59.0718 -41.089
LeftForeArm  12.4805 -28.5581 -5.49796
LeftHand  2.26203 -7.96483 -32.0611
RightShoulder  0 2.42657e-020 1.07489e-018
RightArm  -24.5135 17.4277 97.6405
RightForeArm  31.5595 45.9056 10.5022
RightHand  -0.960525 24.3053 -4.08933
LeftUpLeg  -72.2888 31.5032 12.925
LeftLeg  80.9517 0.847364 3.71491
LeftFoot  -5.53452 -0.174411 -3.60716
LeftToes  -34.9942 8.63562e-007 1.17448e-007
385
root  2.50238 25.0706 -18.3737 30.7219 -61.1753 -13.8148
RightUpLeg  -57.2391 -30.0723 -14.001
RightLeg  74.5021 -5.74016 -16.2431
RightFoot  -4.09649 0.063759 2.16055
RightToes  -27.4375 -0.126679 -0.233767
Spine  18.6256 -7.18068 -2.39521
Spine1  29.9542 -20.0665 4.19508
HEad  3.84083 -31.1961 50.668
LeftShoulder1  0 -2.42657e-020 -4.95415e-022
LeftArm  -63.4868 -59.5397 -43.5779
LeftForeArm  15.1025 -29.9644 -5.82714
LeftHand  2.25534 -7.64893 -33.2132
RightShoulder  0 2.42657e-020 1.07489e-018
RightArm  -23.7295 15.7384 97.2788
RightForeArm  33.4128 48.8416 11.6608
RightHand  -1.10604 24.3123 -4.76259
LeftUpLeg  -68.335 36.6041 13.9905
LeftLeg  79.5756 1.40908 5.56148
LeftFoot  -4.38013 -0.151181 -3.95167
LeftToes  -36.8868 8.63562e-007 1.17448e-007
386
root  2.42232 25.2529 -19.0829 34.9454 -69.1768 -17.6405
RightUpLeg  -66.8894 -35.3271 -5.38854
RightLeg  72.0584 -6.33102 -15.7125
RightFoot  3.97882 0.0418859 -0.828106
RightToes  -24.7076 -0.109226 -0.213553
Spine  18.1246 -6.27626 -1.65706
Spine1  28.8008 -18.727 5.15451
HEad  0.750206 -31.7084 50.5351
LeftShoulder1  0 -2.42657e-020 -4.95415e-022
LeftArm  -57.4607 -59.8627 -49.0514
LeftForeArm  17.0362 -31.9774 -6.31431
LeftHand  2.29103 -7.54268 -34.1492
RightShoulder  0 2.42657e-020 1.07489e-018
RightArm  -23.2422 15.5698 96.6712
RightForeArm  35.8579 50.3567 12.3143
RightHand  -1.5178 24.1955 -6.70439
LeftUpLeg  -63.6285 42.2981 15.5851
LeftLeg  77.5952 2.11254 7.26056
LeftFoot  -2.10231 -0.0764615 -4.16543
LeftToes  -39.3777 8.63562e-007 1.17448e-007
387
root  2.11776 25.4475 -19.8875 43.0837 -77.051 -25.324
RightUpLeg  -77.2809 -38.2158 7.17376
RightLeg  68.2536 -7.08997 -14.6805
RightFoot  10.6417 0.344554 -3.3205
RightToes  -24.0687 -0.105282 -0.208704
Spine  17.9743 -5.37296 -0.882804
Spine1  28.287 -17.2659 5.7819
HEad  -0.533629 -32.1553 50.3253
LeftShoulder1  0 -2.42657e-020 -4.95415e-022
LeftArm  -49.863 -59.5179 -54.6161
LeftForeArm  16.8802 -33.9062 -6.80147
LeftHand  2.28988 -7.31346 -35.1324
RightShoulder  0 2.42657e-020 1.07489e-018
RightArm  -23.1394 16.956 96.7214
RightForeArm  37.6596 49.3548 11.8743
RightHand  -2.18854 24.4794 -9.69623
LeftUpLeg  -56.7298 47.4119 18.6829
LeftLeg  74.7995 2.86279 8.28776
LeftFoot  0.776624 0.0284154 -4.19081
LeftToes  -42.3914 8.63562e-007 1.17448e-007
388
root  1.81233 25.6821 -20.7193 55.1373 -84.5757 -35.4479
RightUpLeg  -86.8585 -38.9143 18.2485
RightLeg  66.2095 -5.17237 -9.95693
RightFoot  2.90184 0.0334779 -0.943902
RightToes  -0.650806 -0.00165444 -0.00614858
Spine  17.4339 -4.83668 -0.365658
Spine1  27.3546 -16.0446 5.47141
HEad  -2.14474 -32.8015 51.0759
LeftShoulder1  0 -2.42657e-020 -4.95415e-022
LeftArm  -41.1824 -59.3218 -61.8024
LeftForeArm  19.4756 -36.0134 -7.36146
LeftHand  2.2633 -7.45296 -34.1438
RightShoulder  0 2.42657e-020 1.07489e-018
RightArm  -24.4042 18.5209 97.2346
RightForeArm  38.4283 47.016 10.9192
RightHand  -2.69356 23.9626 -12.2765
LeftUpLeg  -50.7226 48.808 19.5708
LeftLeg  71.3038 4.54868 10.8863
LeftFoot  5.40521 0.160677 -3.40288
LeftToes  -45.2423 8.63562e-007 1.17448e-007
389
root  1.44882 25.9002 -21.4591 -156.065 -86.5184 178.039
RightUpLeg  -90.3996 -35.4211 19.3121
RightLeg  66.659 -4.03978 -7.99228
RightFoot  2.83598 0.034966 -1.03468
RightToes  -18.1513 -0.0713943 -0.161794
Spine  17.0753 -4.26316 -0.233807
Spine1  26.9578 -14.2812 4.07388
HEad  -4.50444 -32.1516 51.7464
LeftShoulder1  0 -2.42657e-020 -4.95415e-022
LeftArm  -32.7848 -59.2499 -69.2563
LeftForeArm  23.7412 -39.2896 -8.29631
LeftHand  2.21668 -7.92158 -31.6187
RightShoulder  0 2.42657e-020 1.07489e-018
RightArm  -26.6847 21.1559 97.96
RightForeArm  36.3271 43.5787 9.66643
RightHand  -2.73988 23.2384 -12.9013
LeftUpLeg  -44.1871 46.8142 19.6478
LeftLeg  67.9811 6.5513 13.3224
LeftFoot  10.8895 0.163319 -1.71333
LeftToes  -46.0714 8.63562e-007 1.17448e-007
390
root  0.868241 26.0537 -22.1657 -150.618 -77.4753 174.325
RightUpLeg  -92.996 -31.2897 22.5088
RightLeg  68.6889 -5.67959 -12.1244
RightFoot  -5.35744 0.00634604 0.513254
RightToes  -9.06017 -0.0292155 -0.0835915
Spine  17.7205 -3.29838 0.408661
Spine1  27.8928 -11.822 3.21427
HEad  -5.47999 -29.8936 51.5789
LeftShoulder1  0 -2.42657e-020 -4.95415e-022
LeftArm  -25.3307 -59.801 -77.2217
LeftForeArm  28.6467 -43.0067 -9.47235
LeftHand  2.03221 -8.21496 -28.1393
RightShoulder  0 2.42657e-020 1.07489e-018
RightArm  -29.9058 26.0366 98.4422
RightForeArm  32.7997 39.225 8.27794
RightHand  -2.80298 22.0846 -13.9256
LeftUpLeg  -35.6327 40.5509 22.7921
LeftLeg  65.7966 7.70422 14.2042
LeftFoot  15.2975 0.0433449 -0.322769
LeftToes  -43.7783 8.63562e-007 1.17448e-007
